<svg width="9" height="14" viewBox="0 0 9 14" fill="none" xmlns="http://www.w3.org/2000/svg">
<path d="M1.8916 13.2354C2.20605 13.2354 2.45898 13.126 2.67773 12.9072L7.8252 7.88965C8.11914 7.5957 8.24902 7.30859 8.25586 6.94629C8.25586 6.59082 8.11914 6.29004 7.8252 6.00293L2.68457 0.978516C2.45898 0.766602 2.19922 0.657227 1.8916 0.657227C1.2627 0.657227 0.743164 1.16309 0.743164 1.79199C0.743164 2.10645 0.879883 2.39355 1.1123 2.63281L5.57617 6.95312L1.1123 11.2598C0.873047 11.499 0.743164 11.7861 0.743164 12.1006C0.743164 12.7227 1.2627 13.2354 1.8916 13.2354Z" fill="white"/>
</svg>
