<svg width="9" height="14" viewBox="0 0 9 14" fill="none" xmlns="http://www.w3.org/2000/svg">
<path d="M6.31445 13.0322C6.54004 13.2441 6.79297 13.3535 7.10742 13.3535C7.73633 13.3535 8.25586 12.8408 8.25586 12.2188C8.25586 11.9043 8.11914 11.6104 7.88672 11.3779L3.42285 7.05762L7.88672 2.75098C8.12598 2.51172 8.25586 2.21777 8.25586 1.91016C8.25586 1.28809 7.73633 0.775391 7.10742 0.775391C6.79297 0.775391 6.5332 0.87793 6.31445 1.09668L1.17383 6.12109C0.879883 6.4082 0.75 6.70215 0.743164 7.06445C0.743164 7.41992 0.873047 7.71387 1.17383 8.00781L6.31445 13.0322Z" fill="white"/>
</svg>
