<svg width="18" height="22" viewBox="0 0 18 22" fill="none" xmlns="http://www.w3.org/2000/svg">
<path d="M3.81445 21.4277H14.1855C16.207 21.4277 17.2129 20.4023 17.2129 18.3711V9.50391H10.1426C8.89258 9.50391 8.29688 8.9082 8.29688 7.6582V0.490234H3.81445C1.80273 0.490234 0.787109 1.52539 0.787109 3.55664V18.3711C0.787109 20.4121 1.79297 21.4277 3.81445 21.4277ZM10.1719 8.16602H17.0957C17.0371 7.76562 16.7539 7.375 16.2852 6.89648L10.9043 1.41797C10.4453 0.949219 10.0449 0.666016 9.63477 0.597656V7.63867C9.63477 7.99023 9.81055 8.16602 10.1719 8.16602ZM5.24023 13.7324C4.83984 13.7324 4.54688 13.4492 4.54688 13.0684C4.54688 12.6875 4.83984 12.4043 5.24023 12.4043H12.7695C13.1602 12.4043 13.4629 12.6875 13.4629 13.0684C13.4629 13.4492 13.1602 13.7324 12.7695 13.7324H5.24023ZM5.24023 17.4531C4.83984 17.4531 4.54688 17.1699 4.54688 16.7891C4.54688 16.4082 4.83984 16.125 5.24023 16.125H12.7695C13.1602 16.125 13.4629 16.4082 13.4629 16.7891C13.4629 17.1699 13.1602 17.4531 12.7695 17.4531H5.24023Z" fill="white"/>
</svg>
