<svg width="21" height="22" viewBox="0 0 21 22" fill="none" xmlns="http://www.w3.org/2000/svg">
<path d="M10.8457 21.0566C16.3828 21.0566 20.9531 16.4863 20.9531 10.959C20.9531 5.42188 16.373 0.851562 10.8359 0.851562C5.30859 0.851562 0.748047 5.42188 0.748047 10.959C0.748047 16.4863 5.31836 21.0566 10.8457 21.0566ZM9.51758 16.0566C9.14648 16.0566 8.85352 15.8906 8.57031 15.5586L5.75781 12.1309C5.58203 11.916 5.49414 11.6719 5.49414 11.4375C5.49414 10.9102 5.9043 10.5098 6.40234 10.5098C6.70508 10.5098 6.95898 10.6367 7.20312 10.9297L9.48828 13.8105L13.8926 6.7793C14.1074 6.42773 14.3906 6.26172 14.6934 6.26172C15.1816 6.26172 15.6504 6.60352 15.6504 7.12109C15.6504 7.35547 15.5332 7.59961 15.3965 7.81445L10.4355 15.5293C10.2012 15.8809 9.88867 16.0566 9.51758 16.0566Z" fill="#008E5B"/>
</svg>
