<svg width="21" height="20" viewBox="0 0 21 20" fill="none" xmlns="http://www.w3.org/2000/svg">
<path d="M7.54102 19.5684H13.5078C14.7773 19.5684 15.4707 19.1484 16.1445 18.3965L19.6992 14.4023C20.3828 13.6406 20.5586 13.1523 20.5586 12.1172V7.84961C20.5586 6.81445 20.3828 6.32617 19.6992 5.56445L16.1445 1.57031C15.4707 0.828125 14.7773 0.398438 13.5078 0.398438H7.54102C6.27148 0.398438 5.57812 0.828125 4.9043 1.57031L1.34961 5.56445C0.666016 6.32617 0.490234 6.81445 0.490234 7.84961V12.1172C0.490234 13.1523 0.666016 13.6406 1.34961 14.4023L4.9043 18.3965C5.57812 19.1484 6.27148 19.5684 7.54102 19.5684ZM10.5293 11.3457C9.95312 11.3457 9.63086 11.0234 9.60156 10.4375L9.46484 5.95508C9.43555 5.35938 9.88477 4.92969 10.5195 4.92969C11.1445 4.92969 11.6035 5.36914 11.5742 5.96484L11.4277 10.4375C11.4082 11.0234 11.0859 11.3457 10.5293 11.3457ZM10.5293 15.0078C9.875 15.0078 9.33789 14.5488 9.33789 13.8945C9.33789 13.2402 9.86523 12.7812 10.5293 12.7812C11.1738 12.7812 11.7109 13.2305 11.7109 13.8945C11.7109 14.5586 11.1738 15.0078 10.5293 15.0078Z" fill="#CF0019"/>
</svg>
