<svg width="26" height="24" viewBox="0 0 26 24" fill="none" xmlns="http://www.w3.org/2000/svg">
<path d="M9.44922 23.082H16.6094C18.1328 23.082 18.9648 22.5781 19.7734 21.6758L24.0391 16.8828C24.8594 15.9688 25.0703 15.3828 25.0703 14.1406V9.01953C25.0703 7.77734 24.8594 7.19141 24.0391 6.27734L19.7734 1.48438C18.9648 0.59375 18.1328 0.078125 16.6094 0.078125H9.44922C7.92578 0.078125 7.09375 0.59375 6.28516 1.48438L2.01953 6.27734C1.19922 7.19141 0.988281 7.77734 0.988281 9.01953V14.1406C0.988281 15.3828 1.19922 15.9688 2.01953 16.8828L6.28516 21.6758C7.09375 22.5781 7.92578 23.082 9.44922 23.082ZM13.0352 13.2148C12.3438 13.2148 11.957 12.8281 11.9219 12.125L11.7578 6.74609C11.7227 6.03125 12.2617 5.51562 13.0234 5.51562C13.7734 5.51562 14.3242 6.04297 14.2891 6.75781L14.1133 12.125C14.0898 12.8281 13.7031 13.2148 13.0352 13.2148ZM13.0352 17.6094C12.25 17.6094 11.6055 17.0586 11.6055 16.2734C11.6055 15.4883 12.2383 14.9375 13.0352 14.9375C13.8086 14.9375 14.4531 15.4766 14.4531 16.2734C14.4531 17.0703 13.8086 17.6094 13.0352 17.6094Z" fill="#CF0019"/>
</svg>
