<svg width="38" height="38" viewBox="0 0 38 38" fill="none" xmlns="http://www.w3.org/2000/svg">
<path d="M8.60156 29.3984C11.5234 32.263 14.9896 33.6953 19 33.6953C23.0104 33.6953 26.4479 32.263 29.3125 29.3984C32.2344 26.4766 33.6953 23.0104 33.6953 19C33.6953 17.7396 33.4948 16.3646 33.0938 14.875C32.0052 15.1615 30.6302 15.3047 28.9688 15.3047C22.6667 15.3047 17.6823 12.7266 14.0156 7.57031C12.125 12.1536 8.91667 15.4479 4.39062 17.4531C4.33333 17.7969 4.30469 18.3125 4.30469 19C4.30469 23.0104 5.73698 26.4766 8.60156 29.3984ZM6.02344 6.10938C9.63281 2.5 13.9583 0.695312 19 0.695312C24.0417 0.695312 28.3385 2.5 31.8906 6.10938C35.5 9.66146 37.3047 13.9583 37.3047 19C37.3047 24.0417 35.5 28.3672 31.8906 31.9766C28.3385 35.5286 24.0417 37.3047 19 37.3047C13.9583 37.3047 9.63281 35.5286 6.02344 31.9766C2.47135 28.3672 0.695312 24.0417 0.695312 19C0.695312 13.9583 2.47135 9.66146 6.02344 6.10938ZM22.8672 19.2578C23.3255 18.7995 23.8698 18.5703 24.5 18.5703C25.1302 18.5703 25.6745 18.7995 26.1328 19.2578C26.5911 19.6589 26.8203 20.1745 26.8203 20.8047C26.8203 21.4349 26.5911 21.9792 26.1328 22.4375C25.6745 22.8958 25.1302 23.125 24.5 23.125C23.8698 23.125 23.3255 22.8958 22.8672 22.4375C22.4089 21.9792 22.1797 21.4349 22.1797 20.8047C22.1797 20.1745 22.4089 19.6589 22.8672 19.2578ZM11.8672 19.2578C12.3255 18.7995 12.8698 18.5703 13.5 18.5703C14.1302 18.5703 14.6745 18.7995 15.1328 19.2578C15.5911 19.6589 15.8203 20.1745 15.8203 20.8047C15.8203 21.4349 15.5911 21.9792 15.1328 22.4375C14.6745 22.8958 14.1302 23.125 13.5 23.125C12.8698 23.125 12.3255 22.8958 11.8672 22.4375C11.4089 21.9792 11.1797 21.4349 11.1797 20.8047C11.1797 20.1745 11.4089 19.6589 11.8672 19.2578Z" />
</svg>
