<?xml version="1.0" encoding="UTF-8"?>
<svg width="24px" height="24px" viewBox="0 0 24 24" version="1.1" xmlns="http://www.w3.org/2000/svg" xmlns:xlink="http://www.w3.org/1999/xlink">
    <!-- Generator: Sketch 56.3 (81716) - https://sketch.com -->
    <title>Lv1 / Icon / Key</title>
    <desc>Created with Sketch.</desc>
    <g id="Lv1-/-Icon-/-Key" stroke="none" stroke-width="1"  fill-rule="evenodd">
        <path d="M18,12 L18,20 L6,20 L6,12 L18,12 Z M12,2 C8.6862915,2 6,4.6862915 6,8 L6,10 C4.8954305,10 4,10.8954305 4,12 L4,20 C4,21.1045695 4.8954305,22 6,22 L18,22 C19.1045695,22 20,21.1045695 20,20 L20,12 C20,10.8954305 19.1045695,10 18,10 L18,8 C18,4.6862915 15.3137085,2 12,2 Z M8,10 L8,8 C8,5.790861 9.790861,4 12,4 C14.209139,4 16,5.790861 16,8 L16,10 L8,10 Z" id="Path"  fill-rule="nonzero"></path>
    </g>
</svg>
