<svg width="21" height="22" viewBox="0 0 21 22" fill="none" xmlns="http://www.w3.org/2000/svg">
<path d="M10.5 10.5L19.6992 5.27539C19.5527 5.12891 19.377 5.01172 19.1621 4.89453L12.2676 0.96875C11.6719 0.626953 11.0762 0.441406 10.5 0.441406C9.91406 0.441406 9.31836 0.626953 8.72266 0.96875L1.83789 4.89453C1.62305 5.01172 1.44727 5.12891 1.29102 5.27539L10.5 10.5ZM9.82617 21.6914V11.6719L0.666016 6.4375C0.607422 6.65234 0.587891 6.88672 0.587891 7.17969V14.7871C0.587891 16.2031 1.08594 16.7305 1.98438 17.248L9.64062 21.6035C9.69922 21.6426 9.75781 21.6719 9.82617 21.6914ZM11.1641 21.6914C11.2324 21.6719 11.291 21.6426 11.3594 21.6035L19.0059 17.248C19.9141 16.7305 20.4023 16.2031 20.4023 14.7871V7.17969C20.4023 6.88672 20.3828 6.65234 20.3242 6.4375L11.1641 11.6719V21.6914Z" fill="white"/>
</svg>
