<svg width="23" height="20" viewBox="0 0 23 20" fill="none" xmlns="http://www.w3.org/2000/svg">
<path d="M7.22266 3.25C7.22266 2.43945 7.63281 2.0293 8.45312 2.0293H14.5371C15.3574 2.0293 15.7676 2.43945 15.7676 3.25V4.12891H7.22266V3.25ZM22.252 6.99023C22.252 5.0957 21.2461 4.12891 19.3516 4.12891H17.2812V3.35742C17.2812 1.45312 16.334 0.613281 14.5176 0.613281H8.47266C6.75391 0.613281 5.70898 1.45312 5.70898 3.35742V4.12891H3.63867C1.8418 4.12891 0.738281 5.0957 0.738281 6.99023V9.50977H22.252V6.99023ZM3.63867 19.2949H19.3516C21.2461 19.2949 22.252 18.3379 22.252 16.4336V10.8379H15.416V11.4141C15.416 12.2148 14.9473 12.6738 14.1367 12.6738H8.81445C8.00391 12.6738 7.54492 12.2148 7.54492 11.4141V10.8379H0.738281V16.4336C0.738281 18.3379 1.74414 19.2949 3.63867 19.2949Z" fill="white"/>
</svg>
