<svg width="23" height="23" viewBox="0 0 23 23" fill="none" xmlns="http://www.w3.org/2000/svg">
<path d="M0.922852 15.9502C0.922852 18.958 1.79297 20.5693 3.25391 20.5693H6.19727C5.93945 20.1289 5.7998 19.3447 5.72461 18.7646C5.6709 18.3242 5.76758 18.0986 6.05762 18.002C6.30469 17.9268 6.53027 18.0986 6.60547 18.5283C6.75586 19.4844 7.58301 20.9023 8.48535 21.375C9.80664 22.0518 11.2246 22.5566 13.4912 22.5674H14.9521C14.2002 22.1807 13.5879 21.4502 13.6201 20.4297C13.6523 19.7744 13.9209 19.2158 14.2002 18.8076C13.9639 18.3994 13.7275 17.8516 13.749 17.1963C13.7705 16.5947 13.9961 16.0791 14.2539 15.6924C13.9639 15.2627 13.6953 14.6719 13.7168 13.9844C13.7275 13.3291 13.9961 12.7812 14.2861 12.3945C13.9424 11.9541 13.6631 11.3203 13.6738 10.6113C13.7061 9.90234 14.0283 9.33301 14.3936 8.94629C14.2861 8.69922 14.1572 8.35547 14.1572 7.92578C14.1572 6.50781 15.7148 3.86523 15.7148 2.03906C15.7148 1.06152 15.2314 0.470703 14.415 0.470703C13.6201 0.470703 13.3623 1.05078 12.707 2.14648C10.9883 4.93945 8.77539 7.91504 7.09961 11.2881H3.25391C1.79297 11.2881 0.922852 12.9316 0.922852 15.9502ZM14.877 10.665C14.877 11.374 15.3818 11.8789 16.123 11.8574L19.9688 11.8145C20.7637 11.8037 21.29 11.374 21.333 10.6973C21.376 9.9668 20.8066 9.42969 20.0225 9.45117L16.1768 9.53711C15.4033 9.54785 14.877 10.0098 14.877 10.665ZM14.9092 14.0273C14.9092 14.7148 15.4141 15.1768 16.1338 15.209L20.8389 15.3486C21.623 15.3809 22.1816 14.9082 22.1924 14.2207C22.2031 13.4902 21.6768 12.9854 20.9033 12.9639L16.2197 12.8887C15.4678 12.8779 14.9092 13.3506 14.9092 14.0273ZM14.9521 17.2285C14.9307 17.916 15.4355 18.4102 16.166 18.4531L20.3018 18.6787C21.0752 18.7217 21.6445 18.2383 21.6445 17.5293C21.6445 16.8203 21.1504 16.3369 20.3877 16.3154L16.2627 16.1221C15.5215 16.0898 14.9629 16.5518 14.9521 17.2285ZM14.8232 20.4512C14.8018 21.1064 15.2529 21.5684 16.0156 21.665L18.3359 21.9873C19.0664 22.084 19.7002 21.5791 19.7109 20.8486C19.7217 20.1504 19.2383 19.667 18.4648 19.6025L16.1445 19.3662C15.4033 19.291 14.834 19.7637 14.8232 20.4512Z" fill="#51AB0B"/>
</svg>
